<svg version="1.1" viewBox="0.0 0.0 960.0 540.0" fill="none" stroke="none" stroke-linecap="square" stroke-miterlimit="10" xmlns:xlink="http://www.w3.org/1999/xlink" xmlns="http://www.w3.org/2000/svg"><clipPath id="p.0"><path d="m0 0l960.0 0l0 540.0l-960.0 0l0 -540.0z" clip-rule="nonzero"/></clipPath><g clip-path="url(#p.0)"><path fill="#ffffff" d="m0 0l960.0 0l0 540.0l-960.0 0z" fill-rule="evenodd"/><path fill="#ffe535" d="m355.30194 171.62907l93.306915 -125.50834l-9.200317 115.22965l105.91666 -18.782974l-42.065857 61.845306l110.178406 17.787567l-87.490906 50.592834l100.100586 60.914856l-119.40375 -7.5305176l32.790283 111.50769l-103.40976 -78.72403l-19.378357 114.25586l-68.06241 -103.91226l-51.316284 144.22641l-19.303162 -129.25195l-74.02884 43.062347l22.68747 -79.63287l-138.68187 14.065582l89.92261 -60.849915l-93.30693 -68.3804l115.9944 -21.5961l-106.71886 -115.16473l174.0292 87.09847l26.071777 -87.09847z" fill-rule="evenodd"/><path stroke="#595959" stroke-width="1.0" stroke-linejoin="round" stroke-linecap="butt" d="m355.30194 171.62907l93.306915 -125.50834l-9.200317 115.22965l105.91666 -18.782974l-42.065857 61.845306l110.178406 17.787567l-87.490906 50.592834l100.100586 60.914856l-119.40375 -7.5305176l32.790283 111.50769l-103.40976 -78.72403l-19.378357 114.25586l-68.06241 -103.91226l-51.316284 144.22641l-19.303162 -129.25195l-74.02884 43.062347l22.68747 -79.63287l-138.68187 14.065582l89.92261 -60.849915l-93.30693 -68.3804l115.9944 -21.5961l-106.71886 -115.16473l174.0292 87.09847l26.071777 -87.09847z" fill-rule="evenodd"/><path fill="#ed1500" d="m261.46497 234.99448q0.453125 -0.46875 0.90625 -0.703125q0.453125 -0.25 0.921875 -0.25q0.65625 0 1.0625 0.40625q0.421875 0.40625 0.421875 0.96875q0 0.359375 -0.140625 1.109375l-0.671875 3.171875q-0.296875 1.359375 -0.953125 1.9375q-0.640625 0.5625 -1.4375 0.5625q-0.671875 0 -1.0625 -0.390625q-0.390625 -0.359375 -0.390625 -1.0625l0 -0.71875q0 -0.96875 -0.96875 -1.71875q-1.484375 -1.09375 -3.6875153 -1.09375q-1.671875 0 -3.25 0.734375q-1.5625 0.71875 -2.984375 2.390625q-1.421875 1.65625 -1.890625 3.875l-0.515625 2.421875q-0.15625 0.734375 -0.15625 1.4375q0 2.0625 1.578125 3.46875q1.59375 1.40625 4.609375 1.40625q2.0625 0 3.6093903 -0.546875q0.9375 -0.328125 2.125 -1.3125q0.703125 -0.578125 1.0625 -0.75q0.359375 -0.1875 0.765625 -0.1875q0.65625 0 1.09375 0.4375q0.4375 0.4375 0.4375 1.078125q0 1.3125 -2.1875 2.84375q-3.125 2.171875 -7.7968903 2.171875q-2.828125 0 -4.984375 -1.09375q-2.140625 -1.09375 -3.140625 -2.859375q-0.984375 -1.765625 -0.984375 -4.125q0 -0.859375 0.21875 -1.890625l0.546875 -2.53125q0.984375 -4.640625 4.609375 -7.671875q3.625 -3.03125 7.8750153 -3.03125q1.625 0 2.953125 0.375q1.34375 0.375 2.40625 1.140625zm14.384888 2.78125l-3.109375 14.625l8.046875 0l0.75 -3.53125q0.28125 -1.359375 0.921875 -1.921875q0.65625 -0.578125 1.5 -0.578125q0.640625 0 1.046875 0.40625q0.421875 0.40625 0.421875 0.953125q0 0.390625 -0.140625 1.140625l-1.546875 7.265625l-17.71875 0q-1.234375 0 -1.6875 -0.390625q-0.453125 -0.390625 -0.453125 -1.078125q0 -1.140625 1.0625 -1.859375q0.578125 -0.40625 1.875 -0.40625l2.171875 0l3.125 -14.625l-2.1875 0q-1.25 0 -1.703125 -0.390625q-0.4375 -0.390625 -0.4375 -1.09375q0 -1.109375 1.0625 -1.859375q0.578125 -0.40625 1.875 -0.40625l8.09375 0.015625q1.25 0 1.703125 0.390625q0.453125 0.375 0.453125 1.09375q0 1.125 -1.09375 1.875q-0.578125 0.375 -1.84375 0.375l-2.1875 0zm25.838043 0l-3.109375 14.625l3.765625 0q1.265625 0 1.703125 0.390625q0.4375 0.375 0.4375 1.078125q0 1.140625 -1.078125 1.890625q-0.5625 0.375 -1.84375 0.375l-11.296875 0q-1.25 0 -1.703125 -0.390625q-0.4375 -0.390625 -0.4375 -1.078125q0 -1.140625 1.0625 -1.859375q0.578125 -0.40625 1.875 -0.40625l3.78125 0l3.09375 -14.625l-3.78125 0q-1.234375 0 -1.6875 -0.390625q-0.4375 -0.390625 -0.4375 -1.09375q0 -1.109375 1.0625 -1.859375q0.578125 -0.40625 1.875 -0.40625l11.28125 0.015625q1.25 0 1.6875 0.390625q0.4375 0.375 0.4375 1.09375q0 1.125 -1.078125 1.875q-0.5625 0.375 -1.828125 0.375l-3.78125 0zm26.978638 -2.78125q0.453125 -0.46875 0.90625 -0.703125q0.453125 -0.25 0.921875 -0.25q0.65625 0 1.0625 0.40625q0.421875 0.40625 0.421875 0.96875q0 0.359375 -0.140625 1.109375l-0.671875 3.171875q-0.296875 1.359375 -0.953125 1.9375q-0.640625 0.5625 -1.4375 0.5625q-0.671875 0 -1.0625 -0.390625q-0.390625 -0.359375 -0.390625 -1.0625l0 -0.71875q0 -0.96875 -0.96875 -1.71875q-1.484375 -1.09375 -3.6875 -1.09375q-1.671875 0 -3.25 0.734375q-1.5625 0.71875 -2.984375 2.390625q-1.421875 1.65625 -1.890625 3.875l-0.515625 2.421875q-0.15625 0.734375 -0.15625 1.4375q0 2.0625 1.578125 3.46875q1.59375 1.40625 4.609375 1.40625q2.0625 0 3.609375 -0.546875q0.9375 -0.328125 2.125 -1.3125q0.703125 -0.578125 1.0625 -0.75q0.359375 -0.1875 0.765625 -0.1875q0.65625 0 1.09375 0.4375q0.4375 0.4375 0.4375 1.078125q0 1.3125 -2.1875 2.84375q-3.125 2.171875 -7.796875 2.171875q-2.828125 0 -4.984375 -1.09375q-2.140625 -1.09375 -3.140625 -2.859375q-0.984375 -1.765625 -0.984375 -4.125q0 -0.859375 0.21875 -1.890625l0.546875 -2.53125q0.984375 -4.640625 4.609375 -7.671875q3.625 -3.03125 7.875 -3.03125q1.625 0 2.953125 0.375q1.34375 0.375 2.40625 1.140625zm9.822418 13.265625l-0.875 4.140625l1.375 0q1.234375 0 1.671875 0.390625q0.453125 0.375 0.453125 1.078125q0 1.140625 -1.09375 1.890625q-0.5625 0.375 -1.84375 0.375l-5.6875 0q-1.234375 0 -1.6875 -0.390625q-0.4375 -0.390625 -0.4375 -1.078125q0 -1.125 1.046875 -1.859375q0.59375 -0.40625 1.890625 -0.40625l0.578125 0l3.09375 -14.625l-0.578125 0q-1.234375 0 -1.6875 -0.390625q-0.453125 -0.390625 -0.453125 -1.09375q0 -1.109375 1.0625 -1.859375q0.578125 -0.40625 1.875 -0.40625l5.6875 0.015625q1.25 0 1.6875 0.390625q0.453125 0.375 0.453125 1.09375q0 1.125 -1.09375 1.875q-0.546875 0.375 -1.84375 0.375l-1.34375 0l-1.1875 5.546875l7.859375 -5.703125q-0.71875 -0.578125 -0.71875 -1.234375q0 -1.1875 1.078125 -1.953125q0.5625 -0.40625 1.859375 -0.40625l3.8125 0.015625q1.25 0 1.6875 0.390625q0.453125 0.375 0.453125 1.09375q0 0.90625 -0.734375 1.578125q-0.734375 0.671875 -2.0625 0.671875l-7.96875 5.875q1.65625 1.078125 2.84375 3.3125q1.1875 2.234375 1.75 5.4375l1.0 0q1.234375 0 1.671875 0.390625q0.453125 0.375 0.453125 1.078125q0 1.140625 -1.09375 1.890625q-0.546875 0.375 -1.828125 0.375l-3.390625 0q-0.5625 -2.765625 -1.328125 -5.0625q-0.765625 -2.296875 -1.59375 -3.25q-0.8125 -0.953125 -2.09375 -1.515625l-2.71875 1.953125zm53.03543 -1.28125l-7.984375 0l-1.140625 5.421875l0.578125 0q1.265625 0 1.703125 0.390625q0.4375 0.375 0.4375 1.078125q0 1.140625 -1.078125 1.890625q-0.5625 0.375 -1.84375 0.375l-4.59375 0q-1.234375 0 -1.6875 -0.390625q-0.4375 -0.390625 -0.4375 -1.078125q0 -1.171875 1.125 -1.921875q0.546875 -0.359375 2.0625 -0.34375l3.09375 -14.625q-0.84375 -0.0625 -1.234375 -0.453125q-0.390625 -0.390625 -0.390625 -1.03125q0 -1.109375 1.078125 -1.859375q0.5625 -0.40625 1.859375 -0.40625l3.8125 0.015625q1.25 0 1.703125 0.390625q0.453125 0.375 0.453125 1.09375q0 1.125 -1.09375 1.875q-0.578125 0.375 -1.84375 0.375l-0.609375 0l-1.140625 5.46875l7.984375 0l1.15625 -5.46875l-0.59375 0q-1.234375 0 -1.6875 -0.390625q-0.453125 -0.390625 -0.453125 -1.09375q0 -1.109375 1.0625 -1.859375q0.578125 -0.40625 1.875 -0.40625l3.8125 0.015625q1.25 0 1.6875 0.390625q0.4375 0.375 0.4375 1.09375q0 0.828125 -0.640625 1.484375q-0.640625 0.65625 -1.765625 0.765625l-3.109375 14.625q1.5 0 1.875 0.3125q0.515625 0.4375 0.515625 1.15625q0 1.140625 -1.078125 1.890625q-0.5625 0.375 -1.84375 0.375l-4.59375 0q-1.234375 0 -1.6875 -0.390625q-0.4375 -0.390625 -0.4375 -1.078125q0 -1.125 1.046875 -1.859375q0.59375 -0.40625 1.890625 -0.40625l0.578125 0l1.140625 -5.421875zm14.494263 -0.0625l-1.171875 5.484375l9.546875 0l0.4375 -2.03125q0.265625 -1.34375 0.90625 -1.90625q0.65625 -0.578125 1.484375 -0.578125q0.640625 0 1.0625 0.40625q0.4375 0.40625 0.4375 0.96875q0 0.375 -0.15625 1.109375l-1.234375 5.765625l-17.59375 0q-1.25 0 -1.703125 -0.390625q-0.4375 -0.390625 -0.4375 -1.078125q0 -1.125 1.0625 -1.859375q0.578125 -0.40625 1.875 -0.40625l0.578125 0l3.109375 -14.625l-0.59375 0q-1.234375 0 -1.6875 -0.390625q-0.4375 -0.390625 -0.4375 -1.09375q0 -1.109375 1.046875 -1.859375q0.59375 -0.40625 1.890625 -0.40625l16.78125 0.015625l-1.21875 5.6875q-0.28125 1.34375 -0.9375 1.921875q-0.640625 0.5625 -1.46875 0.5625q-0.640625 0 -1.078125 -0.40625q-0.421875 -0.40625 -0.421875 -0.96875q0 -0.359375 0.171875 -1.109375l0.40625 -1.953125l-8.703125 0l-1.15625 5.40625l3.28125 0q0.3125 -1.46875 0.65625 -1.890625q0.765625 -0.890625 1.828125 -0.890625q0.640625 0 1.0625 0.40625q0.421875 0.40625 0.421875 0.96875q0 0.375 -0.171875 1.125l-0.90625 4.296875q-0.265625 1.203125 -0.640625 1.640625q-0.765625 0.859375 -1.78125 0.859375q-0.640625 0 -1.0625 -0.40625q-0.421875 -0.40625 -0.421875 -0.96875q0 -0.390625 0.21875 -1.40625l-3.28125 0zm22.244293 0.78125l-1.015625 4.703125l1.375 0q1.234375 0 1.671875 0.390625q0.453125 0.375 0.453125 1.078125q0 1.140625 -1.09375 1.890625q-0.5625 0.375 -1.828125 0.375l-5.6875 0q-1.25 0 -1.703125 -0.390625q-0.4375 -0.390625 -0.4375 -1.078125q0 -1.125 1.0625 -1.859375q0.578125 -0.40625 1.875 -0.40625l0.578125 0l3.109375 -14.625l-0.59375 0q-1.234375 0 -1.6875 -0.390625q-0.4375 -0.390625 -0.4375 -1.09375q0 -1.109375 1.046875 -1.859375q0.59375 -0.40625 1.890625 -0.40625l8.46875 0.015625q3.5 0 5.25 1.546875q1.75 1.53125 1.75 3.921875q0 2.171875 -1.359375 3.921875q-1.359375 1.734375 -4.09375 3.0625q0.953125 1.0 1.9375 2.609375q0.609375 1.015625 1.59375 3.296875q1.46875 0 1.90625 0.375q0.453125 0.359375 0.453125 1.09375q0 1.140625 -1.078125 1.890625q-0.5625 0.375 -1.859375 0.375l-2.125 0q-1.53125 -3.59375 -3.0 -5.671875q-1.46875 -2.09375 -2.734375 -2.765625l-3.6875 0zm0.78125 -3.734375l2.90625 0q1.421875 0 2.515625 -0.328125q1.484375 -0.453125 2.453125 -1.046875q0.703125 -0.4375 1.140625 -1.0625q0.453125 -0.625 0.453125 -1.28125q0 -0.96875 -0.953125 -1.71875q-0.9375 -0.75 -2.90625 -0.75l-4.28125 0l-1.328125 6.1875zm21.775513 2.953125l-1.171875 5.484375l9.546875 0l0.4375 -2.03125q0.265625 -1.34375 0.90625 -1.90625q0.65625 -0.578125 1.484375 -0.578125q0.640625 0 1.0625 0.40625q0.4375 0.40625 0.4375 0.96875q0 0.375 -0.15625 1.109375l-1.234375 5.765625l-17.59375 0q-1.25 0 -1.703125 -0.390625q-0.4375 -0.390625 -0.4375 -1.078125q0 -1.125 1.0625 -1.859375q0.578125 -0.40625 1.875 -0.40625l0.578125 0l3.109375 -14.625l-0.59375 0q-1.234375 0 -1.6875 -0.390625q-0.4375 -0.390625 -0.4375 -1.09375q0 -1.109375 1.046875 -1.859375q0.59375 -0.40625 1.890625 -0.40625l16.78125 0.015625l-1.21875 5.6875q-0.28125 1.34375 -0.9375 1.921875q-0.640625 0.5625 -1.46875 0.5625q-0.640625 0 -1.078125 -0.40625q-0.421875 -0.40625 -0.421875 -0.96875q0 -0.359375 0.171875 -1.109375l0.40625 -1.953125l-8.703125 0l-1.15625 5.40625l3.28125 0q0.3125 -1.46875 0.65625 -1.890625q0.765625 -0.890625 1.828125 -0.890625q0.640625 0 1.0625 0.40625q0.421875 0.40625 0.421875 0.96875q0 0.375 -0.171875 1.125l-0.90625 4.296875q-0.265625 1.203125 -0.640625 1.640625q-0.765625 0.859375 -1.78125 0.859375q-0.640625 0 -1.0625 -0.40625q-0.421875 -0.40625 -0.421875 -0.96875q0 -0.390625 0.21875 -1.40625l-3.28125 0z" fill-rule="nonzero"/><path fill="#ed1500" d="m233.06157 297.40073l3.09375 -14.625l-0.578125 0q-1.25 0 -1.703125 -0.390625q-0.4375 -0.390625 -0.4375 -1.09375q0 -1.109375 1.0625 -1.859375q0.578125 -0.40625 1.875 -0.40625l9.375 0q2.96875 0 4.59375 1.484375q1.640625 1.46875 1.640625 3.578125q0 1.59375 -0.75 2.96875q-0.734375 1.375 -2.203125 2.5625q1.234375 0.828125 1.84375 1.9375q0.609375 1.109375 0.609375 2.484375q0 1.640625 -0.796875 3.03125q-0.78125 1.390625 -1.78125 2.171875q-1.0 0.78125 -2.578125 1.34375q-1.578125 0.546875 -3.6875 0.546875l-10.96875 0q-1.234375 0 -1.6875 -0.390625q-0.4375 -0.390625 -0.4375 -1.078125q0 -1.125 1.046875 -1.859375q0.59375 -0.40625 1.875 -0.40625l0.59375 0zm5.6875 -9.1875l4.09375 0q2.359375 0 3.84375 -1.0625q1.484375 -1.078125 1.484375 -2.296875q0 -0.875 -0.78125 -1.46875q-0.765625 -0.609375 -2.625 -0.609375l-4.859375 0l-1.15625 5.4375zm-1.953125 9.1875l6.453125 0q2.484375 0 3.4375 -0.734375q0.96875 -0.75 0.96875 -1.78125q0 -1.078125 -1.171875 -2.0q-1.171875 -0.9375 -3.59375 -0.9375l-4.921875 0l-1.171875 5.453125zm25.431778 4.28125q-3.53125 0 -5.921875 -2.46875q-2.390625 -2.46875 -2.390625 -6.3125q0 -3.578125 1.875 -7.015625q1.875 -3.453125 5.390625 -5.578125q3.015625 -1.828125 5.96875 -1.828125q3.46875 0 5.875 2.46875q2.421875 2.46875 2.421875 6.21875q0 2.9375 -1.234375 5.765625q-1.234375 2.8125 -3.15625 4.6875q-1.90625 1.859375 -4.234375 2.96875q-2.328125 1.09375 -4.59375 1.09375zm0.78125 -3.734375q1.90625 0 4.015625 -1.359375q2.125 -1.359375 3.34375 -3.734375q1.234375 -2.375 1.234375 -4.765625q0 -2.609375 -1.53125 -4.234375q-1.53125 -1.640625 -3.734375 -1.640625q-1.859375 0 -3.953125 1.328125q-2.09375 1.3125 -3.375 3.6875q-1.265625 2.375 -1.265625 4.796875q0 2.65625 1.53125 4.296875q1.53125 1.625 3.734375 1.625zm34.134888 -15.171875l-2.25 10.59375q-0.734375 3.5 -3.75 5.90625q-3.015625 2.40625 -6.546875 2.40625q-3.0 0 -4.96875 -1.875q-1.96875 -1.875 -1.96875 -4.65625q0 -0.8125 0.203125 -1.78125l2.25 -10.59375q-1.0625 0 -1.5 -0.390625q-0.4375 -0.40625 -0.4375 -1.078125q0 -1.15625 1.0625 -1.875q0.546875 -0.390625 1.84375 -0.390625l4.921875 -0.015625q1.25 0 1.6875 0.390625q0.453125 0.390625 0.453125 1.109375q0 1.109375 -1.0625 1.859375q-0.578125 0.390625 -1.875 0.390625l-1.34375 0l-2.34375 10.921875q-0.0625 0.40625 -0.0625 0.796875q0 1.390625 1.109375 2.421875q1.109375 1.03125 2.765625 1.03125q1.40625 0 2.6875 -0.640625q1.28125 -0.640625 2.25 -1.828125q0.609375 -0.703125 0.828125 -1.78125l2.3125 -10.921875l-1.34375 0q-1.25 0 -1.703125 -0.390625q-0.4375 -0.390625 -0.4375 -1.09375q0 -1.109375 1.0625 -1.859375q0.5625 -0.40625 1.875 -0.40625l4.90625 0.015625q1.25 0 1.6875 0.390625q0.4375 0.375 0.4375 1.078125q0 0.921875 -0.71875 1.59375q-0.71875 0.671875 -2.03125 0.671875zm12.306793 0l-3.109375 14.625l8.046875 0l0.75 -3.53125q0.28125 -1.359375 0.921875 -1.921875q0.65625 -0.578125 1.5 -0.578125q0.640625 0 1.046875 0.40625q0.421875 0.40625 0.421875 0.953125q0 0.390625 -0.140625 1.140625l-1.546875 7.265625l-17.71875 0q-1.234375 0 -1.6875 -0.390625q-0.453125 -0.390625 -0.453125 -1.078125q0 -1.140625 1.0625 -1.859375q0.578125 -0.40625 1.875 -0.40625l2.171875 0l3.125 -14.625l-2.1875 0q-1.25 0 -1.703125 -0.390625q-0.4375 -0.390625 -0.4375 -1.09375q0 -1.109375 1.0625 -1.859375q0.578125 -0.40625 1.875 -0.40625l8.09375 0.015625q1.25 0 1.703125 0.390625q0.453125 0.375 0.453125 1.09375q0 1.125 -1.09375 1.875q-0.578125 0.375 -1.84375 0.375l-2.1875 0zm13.806763 14.625l3.109375 -14.625q-1.078125 0 -1.515625 -0.390625q-0.4375 -0.40625 -0.4375 -1.09375q0 -1.109375 1.046875 -1.859375q0.59375 -0.40625 1.890625 -0.40625l7.8125305 0.015625q4.09375 0 6.328125 3.03125q1.46875 2.0 1.46875 5.203125q0 1.0625 -0.265625 2.328125l-0.390625 1.78125q-0.5 2.375 -1.6875 4.21875q-1.1875 1.828125 -2.78125 3.0q-1.59375 1.171875 -2.875 1.71875q-1.921875 0.8125 -4.796875 0.8125l-7.5156555 0q-1.25 0 -1.703125 -0.390625q-0.4375 -0.390625 -0.4375 -1.078125q0 -0.9375 0.75 -1.609375q0.75 -0.671875 2.0 -0.65625zm3.734375 0l3.9844055 0q2.3125 0 3.78125 -0.796875q1.484375 -0.796875 2.453125 -2.078125q0.984375 -1.296875 1.390625 -3.25l0.375 -1.765625q0.171875 -0.859375 0.171875 -1.546875q0 -2.4375 -1.328125 -3.8125q-1.328125 -1.375 -3.765625 -1.375l-3.953125 0l-3.1094055 14.625zm23.025543 -5.484375l-1.171875 5.484375l9.546875 0l0.4375 -2.03125q0.265625 -1.34375 0.90625 -1.90625q0.65625 -0.578125 1.484375 -0.578125q0.640625 0 1.0625 0.40625q0.4375 0.40625 0.4375 0.96875q0 0.375 -0.15625 1.109375l-1.234375 5.765625l-17.59375 0q-1.25 0 -1.703125 -0.390625q-0.4375 -0.390625 -0.4375 -1.078125q0 -1.125 1.0625 -1.859375q0.578125 -0.40625 1.875 -0.40625l0.578125 0l3.109375 -14.625l-0.59375 0q-1.234375 0 -1.6875 -0.390625q-0.4375 -0.390625 -0.4375 -1.09375q0 -1.109375 1.046875 -1.859375q0.59375 -0.40625 1.890625 -0.40625l16.78125 0.015625l-1.21875 5.6875q-0.28125 1.34375 -0.9375 1.921875q-0.640625 0.5625 -1.46875 0.5625q-0.640625 0 -1.078125 -0.40625q-0.421875 -0.40625 -0.421875 -0.96875q0 -0.359375 0.171875 -1.109375l0.40625 -1.953125l-8.703125 0l-1.15625 5.40625l3.28125 0q0.3125 -1.46875 0.65625 -1.890625q0.765625 -0.890625 1.828125 -0.890625q0.640625 0 1.0625 0.40625q0.421875 0.40625 0.421875 0.96875q0 0.375 -0.171875 1.125l-0.90625 4.296875q-0.265625 1.203125 -0.640625 1.640625q-0.765625 0.859375 -1.78125 0.859375q-0.640625 0 -1.0625 -0.40625q-0.421875 -0.40625 -0.421875 -0.96875q0 -0.390625 0.21875 -1.40625l-3.28125 0zm22.244293 0.78125l-1.015625 4.703125l1.375 0q1.234375 0 1.671875 0.390625q0.453125 0.375 0.453125 1.078125q0 1.140625 -1.09375 1.890625q-0.5625 0.375 -1.828125 0.375l-5.6875 0q-1.25 0 -1.703125 -0.390625q-0.4375 -0.390625 -0.4375 -1.078125q0 -1.125 1.0625 -1.859375q0.578125 -0.40625 1.875 -0.40625l0.578125 0l3.109375 -14.625l-0.59375 0q-1.234375 0 -1.6875 -0.390625q-0.4375 -0.390625 -0.4375 -1.09375q0 -1.109375 1.046875 -1.859375q0.59375 -0.40625 1.890625 -0.40625l8.46875 0.015625q3.5 0 5.25 1.546875q1.75 1.53125 1.75 3.921875q0 2.171875 -1.359375 3.921875q-1.359375 1.734375 -4.09375 3.0625q0.953125 1.0 1.9375 2.609375q0.609375 1.015625 1.59375 3.296875q1.46875 0 1.90625 0.375q0.453125 0.359375 0.453125 1.09375q0 1.140625 -1.078125 1.890625q-0.5625 0.375 -1.859375 0.375l-2.125 0q-1.53125 -3.59375 -3.0 -5.671875q-1.46875 -2.09375 -2.734375 -2.765625l-3.6875 0zm0.78125 -3.734375l2.90625 0q1.421875 0 2.515625 -0.328125q1.484375 -0.453125 2.453125 -1.046875q0.703125 -0.4375 1.140625 -1.0625q0.453125 -0.625 0.453125 -1.28125q0 -0.96875 -0.953125 -1.71875q-0.9375 -0.75 -2.90625 -0.75l-4.28125 0l-1.328125 6.1875zm29.447388 -6.1875l-3.109375 14.625l3.765625 0q1.265625 0 1.703125 0.390625q0.4375 0.375 0.4375 1.078125q0 1.140625 -1.078125 1.890625q-0.5625 0.375 -1.84375 0.375l-11.296875 0q-1.25 0 -1.703125 -0.390625q-0.4375 -0.390625 -0.4375 -1.078125q0 -1.140625 1.0625 -1.859375q0.578125 -0.40625 1.875 -0.40625l3.78125 0l3.09375 -14.625l-3.78125 0q-1.234375 0 -1.6875 -0.390625q-0.4375 -0.390625 -0.4375 -1.09375q0 -1.109375 1.0625 -1.859375q0.578125 -0.40625 1.875 -0.40625l11.28125 0.015625q1.25 0 1.6875 0.390625q0.4375 0.375 0.4375 1.09375q0 1.125 -1.078125 1.875q-0.5625 0.375 -1.828125 0.375l-3.78125 0zm15.150543 3.328125l-2.40625 11.296875l1.34375 0q1.265625 0 1.703125 0.390625q0.4375 0.375 0.4375 1.078125q0 1.140625 -1.078125 1.890625q-0.5625 0.375 -1.84375 0.375l-4.921875 0q-1.234375 0 -1.6875 -0.390625q-0.4375 -0.390625 -0.4375 -1.078125q0 -0.921875 0.71875 -1.59375q0.734375 -0.671875 2.03125 -0.671875l3.09375 -14.625l-0.578125 0q-1.25 0 -1.703125 -0.390625q-0.4375 -0.390625 -0.4375 -1.09375q0 -1.109375 1.0625 -1.859375q0.578125 -0.40625 1.875 -0.40625l4.328125 0.015625l6.375 14.984375l2.390625 -11.25l-1.375 0q-1.234375 0 -1.6875 -0.390625q-0.4375 -0.390625 -0.4375 -1.09375q0 -1.109375 1.046875 -1.859375q0.59375 -0.40625 1.875 -0.40625l4.921875 0.015625q1.25 0 1.6875 0.390625q0.453125 0.375 0.453125 1.09375q0 0.90625 -0.734375 1.578125q-0.71875 0.671875 -2.015625 0.671875l-3.90625 18.359375l-3.703125 0l-6.390625 -15.03125zm34.744263 8.203125l-1.078125 5.0q-2.859375 1.390625 -4.75 1.875q-1.890625 0.5 -4.015625 0.5q-3.046875 0 -5.234375 -0.96875q-2.1875 -0.96875 -3.140625 -2.53125q-0.9375 -1.578125 -0.9375 -4.15625q0 -1.015625 0.25 -2.203125l0.5625 -2.703125q0.78125 -3.734375 3.6875 -6.671875q3.921875 -3.96875 9.1875 -3.96875q1.53125 0 2.84375 0.3125q1.328125 0.3125 2.421875 0.921875q0.890625 -0.671875 1.578125 -0.671875q0.640625 0 1.0625 0.40625q0.4375 0.40625 0.4375 0.96875q0 0.359375 -0.171875 1.109375l-0.5 2.421875q-0.296875 1.34375 -0.953125 1.921875q-0.640625 0.578125 -1.46875 0.578125q-0.640625 0 -1.046875 -0.40625q-0.265625 -0.296875 -0.328125 -1.21875q-0.046875 -0.9375 -0.296875 -1.265625q-0.375 -0.515625 -1.53125 -0.921875q-1.140625 -0.421875 -2.703125 -0.421875q-2.140625 0 -3.9375 0.859375q-1.359375 0.640625 -2.75 2.34375q-1.375 1.703125 -1.796875 3.703125l-0.5625 2.703125q-0.203125 0.921875 -0.203125 1.84375q0 1.953125 1.25 2.953125q1.640625 1.328125 4.921875 1.328125q1.28125 0 2.5 -0.25q1.234375 -0.25 2.390625 -0.71875l0.578125 -2.671875l-3.8125 0q-1.265625 0 -1.71875 -0.390625q-0.4375 -0.40625 -0.4375 -1.109375q0 -1.09375 1.0625 -1.84375q0.5625 -0.421875 1.875 -0.421875l6.65625 0.015625q1.234375 0 1.671875 0.390625q0.453125 0.375 0.453125 1.09375q0 0.703125 -0.515625 1.34375q-0.515625 0.640625 -1.5 0.921875z" fill-rule="nonzero"/><path fill="#000000" d="m465.645 281.21323l-3.421875 11.265625q-0.265625 0.875 -0.890625 1.359375q-0.609375 0.484375 -1.3125 0.484375q-0.75 0 -1.15625 -0.40625q-0.390625 -0.40625 -0.390625 -1.171875q0 -0.125 0.015625 -0.265625l1.359375 -11.265625q0.1875 -1.5625 0.609375 -2.359375q0.421875 -0.8125 1.359375 -1.359375q0.9375 -0.5625 1.84375 -0.5625q1.046875 0 1.734375 0.65625q0.6875 0.65625 0.6875 1.546875q0 0.6875 -0.4375 2.078125zm-7.1875 20.46875q-0.96875 0 -1.4375 -0.4375q-0.46875 -0.421875 -0.46875 -1.109375q0 -0.875 0.75 -1.5625q0.765625 -0.703125 1.953125 -0.703125q0.96875 0 1.421875 0.421875q0.46875 0.421875 0.46875 1.078125q0 0.90625 -0.75 1.609375q-0.734375 0.703125 -1.9375 0.703125zm17.734375 -20.46875l-3.421875 11.265625q-0.265625 0.875 -0.890625 1.359375q-0.609375 0.484375 -1.3125 0.484375q-0.75 0 -1.15625 -0.40625q-0.390625 -0.40625 -0.390625 -1.171875q0 -0.125 0.015625 -0.265625l1.359375 -11.265625q0.1875 -1.5625 0.609375 -2.359375q0.421875 -0.8125 1.359375 -1.359375q0.9375 -0.5625 1.84375 -0.5625q1.046875 0 1.734375 0.65625q0.6875 0.65625 0.6875 1.546875q0 0.6875 -0.4375 2.078125zm-7.1875 20.46875q-0.96875 0 -1.4375 -0.4375q-0.46875 -0.421875 -0.46875 -1.109375q0 -0.875 0.75 -1.5625q0.765625 -0.703125 1.953125 -0.703125q0.96875 0 1.421875 0.421875q0.46875 0.421875 0.46875 1.078125q0 0.90625 -0.75 1.609375q-0.734375 0.703125 -1.9375 0.703125z" fill-rule="nonzero"/></g></svg>